<?xml version="1.0" standalone="no"?>
<!DOCTYPE svg PUBLIC "-//W3C//DTD SVG 20010904//EN"
 "http://www.w3.org/TR/2001/REC-SVG-20010904/DTD/svg10.dtd">
<svg version="1.0" xmlns="http://www.w3.org/2000/svg"
 width="512.000000pt" height="512.000000pt" viewBox="0 0 512.000000 512.000000"
 preserveAspectRatio="xMidYMid meet">
<metadata>
Created by potrace 1.14, written by Peter Selinger 2001-2017
</metadata>
<g transform="translate(0.000000,512.000000) scale(0.100000,-0.100000)"
fill="#000000" stroke="none">
<path d="M335 3033 c-2 -962 -6 -1820 -7 -1908 l-3 -160 474 -3 c343 -1 478
-5 488 -14 11 -9 14 -40 12 -145 -1 -73 1 -136 4 -140 4 -3 65 -5 136 -4 100
2 136 -1 159 -13 22 -11 62 -15 169 -14 77 0 146 -2 152 -6 7 -5 11 -54 11
-147 0 -104 3 -139 13 -140 6 0 69 0 139 1 96 1 133 -2 156 -14 22 -11 62 -15
169 -14 77 0 146 -2 152 -6 7 -5 11 -57 11 -157 l0 -149 150 0 150 0 0 149 c0
97 4 152 11 157 14 8 304 8 318 0 7 -5 11 -60 11 -157 l0 -149 145 0 145 0 0
145 c0 108 4 153 15 174 10 21 14 63 13 165 0 75 2 139 5 142 8 9 293 8 306
-1 7 -4 11 -57 11 -146 0 -86 4 -139 10 -139 68 -4 273 -1 277 4 4 3 5 64 4
135 -2 100 1 136 13 159 12 23 15 61 14 166 0 75 2 139 5 143 4 3 68 5 143 5
105 -1 143 2 166 14 23 12 59 15 159 13 71 -1 132 0 135 4 5 4 8 209 4 277 0
6 -53 10 -139 10 -89 0 -142 4 -146 11 -9 13 -10 298 -1 306 3 3 67 5 142 5
102 -1 144 3 165 13 21 11 66 15 174 15 l145 0 0 146 0 145 -152 -2 c-98 -1
-164 3 -182 10 -19 8 -80 11 -162 10 -72 -1 -136 1 -143 5 -7 5 -11 55 -11
152 l0 144 -148 0 c-102 0 -152 4 -160 12 -9 9 -12 94 -12 320 l0 308 -148 0
c-102 0 -152 4 -160 12 -8 8 -12 58 -12 160 l0 148 -155 0 c-143 0 -155 1
-165 20 -7 12 -9 126 -8 327 l3 308 149 3 c90 1 155 7 163 14 18 15 19 278 1
279 -7 0 -72 0 -145 -1 -80 -1 -140 3 -152 10 -20 10 -21 19 -21 160 l0 150
-140 0 -140 0 0 -148 c0 -102 -4 -152 -12 -160 -8 -8 -58 -12 -158 -12 -196 0
-190 -5 -190 183 l0 137 -1108 0 c-848 0 -1111 3 -1120 12 -8 8 -12 58 -12
160 l0 148 -140 0 -140 0 -5 -1747z m1897 497 c-1 -168 -5 -315 -7 -327 l-5
-23 -299 0 c-263 0 -300 2 -305 16 -3 9 -6 155 -6 325 l0 308 153 4 c83 1 224
3 312 2 l160 0 -3 -305z m970 -1127 l3 -158 163 -3 c145 -2 162 -4 163 -20 3
-124 -1 -286 -8 -293 -5 -5 -79 -8 -164 -7 l-154 3 -3 157 -3 157 -157 3 -157
3 -3 145 c-1 79 0 150 2 157 4 10 43 13 160 13 l155 0 3 -157z m-672 117 c0
-5 -2 -10 -4 -10 -3 0 -8 5 -11 10 -3 6 -1 10 4 10 6 0 11 -4 11 -10z m320
-320 c0 -5 -2 -10 -4 -10 -3 0 -8 5 -11 10 -3 6 -1 10 4 10 6 0 11 -4 11 -10z
m320 -320 c0 -5 -2 -10 -4 -10 -3 0 -8 5 -11 10 -3 6 -1 10 4 10 6 0 11 -4 11
-10z"/>
<path d="M2900 4640 l0 -140 140 0 140 0 0 140 0 140 -140 0 -140 0 0 -140z"/>
<path d="M4180 3822 c-6 -2 -10 -60 -10 -148 l0 -144 145 0 c80 0 145 3 145 8
3 93 1 274 -3 279 -6 6 -260 10 -277 5z"/>
<path d="M4503 3183 c-10 -3 -13 -43 -13 -149 l0 -144 145 0 c80 0 145 3 145
8 1 17 1 268 1 280 -1 9 -34 12 -133 11 -73 0 -139 -3 -145 -6z"/>
<path d="M4823 2543 c-10 -3 -13 -42 -13 -143 0 -116 2 -139 16 -144 9 -3 78
-6 155 -6 l139 0 0 150 0 150 -142 -1 c-79 0 -149 -3 -155 -6z"/>
</g>
</svg>
